<svg width="750" height="375" viewBox="0 0 750 375" fill="none" xmlns="http://www.w3.org/2000/svg">
<rect width="750" height="375" fill="#3D3D48"/>
<path d="M120 171.424H136.555V181.037C138.691 177.832 141.628 174.895 145.366 173.026C149.105 170.89 153.11 169.822 157.382 169.822C165.126 169.822 172.335 173.026 177.141 178.9C182.482 185.042 185.419 193.586 185.152 204.534C185.152 215.749 182.482 224.56 176.874 230.701C172.068 236.576 164.859 240.047 157.115 240.047C153.644 240.047 150.173 239.246 146.969 237.911C143.497 236.042 140.026 233.372 137.356 230.434V264.345H120V171.424ZM137.623 203.733C137.623 211.209 139.225 216.817 142.162 220.555C144.832 224.026 148.838 225.895 153.11 225.895C157.115 225.895 160.853 224.026 163.524 220.822C166.194 217.618 167.529 212.01 167.529 204.534C167.529 197.325 166.194 192.251 163.257 188.78C160.853 185.576 156.848 183.707 152.843 183.707C148.571 183.707 144.565 185.576 141.895 188.78C138.691 193.052 137.089 198.393 137.623 203.733ZM199.571 238.445V145.791H217.194V238.445H199.571ZM248.969 191.717L232.948 188.78C234.283 182.906 237.487 177.832 242.293 174.361C246.832 171.157 253.241 169.555 262.052 169.555C268.194 169.288 274.068 170.089 279.675 172.492C283.147 173.827 285.817 176.497 287.953 179.701C289.555 182.639 290.356 187.979 290.356 195.722L290.089 216.55C290.089 220.822 290.356 225.361 290.89 229.633C291.691 232.838 292.759 235.775 294.094 238.712H276.471C275.937 237.644 275.403 235.775 274.869 233.372C274.602 232.571 274.602 232.037 274.335 231.236C271.398 234.173 268.194 236.309 264.455 237.911C260.984 239.513 257.246 240.047 253.241 240.047C247.366 240.314 241.492 238.445 236.953 234.44C232.948 230.701 230.811 225.628 231.078 220.288C231.078 216.817 231.88 213.078 233.749 210.141C235.618 207.204 238.288 204.801 241.492 203.199C246.031 201.33 250.838 199.995 255.644 199.194C261.518 198.393 267.393 196.79 273 194.921V193.052C273.267 190.382 272.466 187.712 270.33 185.843C267.393 183.974 264.188 183.44 260.717 183.707C255.11 182.906 250.037 186.377 248.969 191.717ZM272.733 206.136C270.597 206.937 266.859 207.738 262.052 208.806C258.581 209.34 255.377 210.408 252.44 212.01C250.304 213.345 248.969 215.749 248.969 218.152C248.969 220.555 249.77 222.958 251.639 224.56C253.508 226.429 256.178 227.23 258.848 227.23C262.052 227.23 265.256 226.162 267.927 224.026C269.796 222.691 271.398 220.555 272.199 218.419C272.733 215.482 273 212.544 273 209.874L272.733 206.136ZM368.859 238.445H350.968V204.267C351.235 199.461 350.701 194.921 349.633 190.115C348.832 187.979 347.764 186.377 345.895 185.042C344.026 183.974 341.89 183.173 339.754 183.173C336.817 183.173 333.879 183.974 331.476 185.843C329.073 187.445 327.204 189.848 326.403 192.518C325.335 197.592 324.801 202.665 325.068 208.005V238.445H307.445V171.424H324V181.037C331.476 170.623 345.094 166.885 356.843 171.691C359.78 172.759 362.183 174.628 364.319 177.031C365.921 179.167 367.256 181.838 367.79 184.508C368.592 188.513 368.859 192.518 368.859 196.523V238.445ZM379.005 171.157H388.885V166.084C388.618 161.811 389.152 157.539 390.754 153.534C392.089 150.597 394.492 148.194 397.429 146.859C401.167 144.989 405.44 143.921 409.712 144.188C414.785 144.188 419.859 144.989 424.665 146.592L422.262 158.874C419.591 158.34 416.921 157.806 413.984 157.806C411.848 157.539 409.979 158.34 408.377 159.675C407.042 161.811 406.508 164.215 406.775 166.618V171.424H420.125V185.309H406.775V238.445H388.885V185.309H379.005V171.157ZM429.738 162.078V145.791H447.628V162.078H429.738ZM429.738 238.445V171.424H447.628V238.445H429.738ZM457.241 238.445L481.539 203.733L458.309 171.157H479.937L491.686 189.581L504.235 171.157H525.063L502.366 202.932L527.199 238.178H505.303L491.686 217.351L477.801 238.178L457.241 238.445Z" fill="white"/>
<path d="M544.822 102H630V208.539L587.545 194.387L544.822 208.539V102Z" fill="#6FA92E"/>
<path d="M612.377 124.162H571.791C569.654 123.895 567.785 125.497 567.518 127.367C567.518 127.634 567.518 128.168 567.518 128.435V178.901C568.853 181.304 571.791 182.372 574.194 181.037C574.995 180.503 575.529 179.969 576.063 179.435V159.141H612.377L599.293 141.785L612.377 124.162ZM595.288 150.864H576.33V132.707H595.288L588.613 141.785L595.288 150.864Z" fill="white"/>
<path d="M274.869 268.084C273.267 268.084 271.665 267.55 270.597 266.482C269.529 265.147 268.995 263.545 268.995 261.942C268.995 260.34 269.529 258.471 270.33 257.136C271.398 256.068 272.733 255.267 274.335 255.267C275.67 255.267 277.005 255.801 278.073 256.869C279.141 257.937 279.408 259.539 279.408 260.874V262.209H270.864C270.864 263.545 271.131 264.613 271.932 265.681C272.733 266.482 273.801 266.749 274.869 266.749C276.204 266.749 277.539 266.482 278.874 265.948V267.55C277.806 268.084 276.471 268.351 274.869 268.084ZM274.602 256.869C273.801 256.869 272.733 257.136 272.199 257.937C271.665 258.738 271.131 259.539 271.131 260.607H277.539C277.539 259.539 277.272 258.738 276.738 257.937C276.204 257.136 275.403 256.869 274.602 256.869Z" fill="white"/>
<path d="M291.424 267.817V259.806C291.424 259.005 291.157 258.204 290.623 257.67C290.089 257.136 289.288 256.869 288.487 256.869C287.419 256.869 286.351 257.136 285.55 257.937C284.749 259.005 284.482 260.073 284.749 261.408V267.817H282.88V255.534H284.482L284.749 257.136C285.016 256.602 285.817 256.068 286.351 255.801C287.152 255.534 287.953 255.267 288.754 255.267C290.089 255.267 291.157 255.534 292.225 256.335C293.026 257.403 293.56 258.471 293.293 259.806V267.817H291.424Z" fill="white"/>
<path d="M301.037 266.749C301.304 266.749 301.571 266.749 302.105 266.749L302.906 266.482V267.817C302.639 267.817 302.372 268.084 302.105 268.084C301.838 268.084 301.304 268.084 301.037 268.084C298.634 268.084 297.566 266.749 297.566 264.346V256.869H295.696V256.068L297.566 255.267L298.367 252.597H299.435V255.534H302.906V256.869H299.435V264.079C299.435 264.613 299.702 265.414 299.969 265.681C299.969 266.482 300.503 266.749 301.037 266.749Z" fill="white"/>
<path d="M310.382 268.084C308.78 268.084 307.178 267.55 306.11 266.482C305.042 265.147 304.508 263.545 304.508 261.942C304.508 260.34 305.042 258.471 306.11 257.136C307.178 256.068 308.513 255.267 310.115 255.267C311.45 255.267 312.786 255.801 313.854 256.869C314.655 257.937 315.189 259.539 315.189 260.874V262.209H306.644C306.644 263.277 306.911 264.613 307.712 265.414C308.513 266.215 309.581 266.482 310.649 266.482C311.985 266.482 313.32 266.215 314.655 265.681V267.283C313.053 268.084 311.717 268.351 310.382 268.084ZM309.848 256.869C309.047 256.869 307.979 257.136 307.445 257.937C306.911 258.738 306.377 259.539 306.377 260.607H312.786C312.786 259.539 312.519 258.738 311.985 257.937C311.717 257.136 310.916 256.869 309.848 256.869Z" fill="white"/>
<path d="M324 255.267C324.534 255.267 325.068 255.267 325.602 255.267L325.335 257.136C324.801 257.136 324.534 256.869 324 256.869C322.932 256.869 321.864 257.403 321.33 258.204C320.529 259.005 320.262 260.073 320.262 261.141V267.817H318.393V255.534H319.995L320.262 257.937C320.796 257.136 321.33 256.602 321.864 256.068C322.131 255.534 322.932 255.267 324 255.267Z" fill="white"/>
<path d="M333.612 268.084C332.811 268.084 332.01 267.817 331.476 267.55C330.675 267.283 330.141 266.749 329.874 266.215C329.874 267.016 329.874 267.55 329.874 268.351V273.424H328.005V255.534H329.607L329.874 257.136C330.408 256.602 330.942 256.068 331.476 255.801C332.277 255.534 332.811 255.267 333.612 255.267C335.214 255.267 336.549 255.801 337.35 256.869C338.418 258.204 338.686 259.806 338.686 261.675C338.686 263.277 338.151 265.147 337.35 266.482C336.282 267.55 334.947 268.351 333.612 268.084ZM333.345 256.869C332.277 256.869 331.476 257.136 330.675 257.937C330.141 259.005 329.607 260.073 329.874 261.408V261.942C329.874 263.277 330.141 264.613 330.675 265.681C331.476 266.482 332.544 267.016 333.612 266.749C334.68 266.749 335.481 266.215 336.015 265.414C336.816 264.346 337.083 263.01 336.816 261.942C336.816 260.607 336.549 259.539 336.015 258.471C335.481 257.136 334.413 256.869 333.345 256.869Z" fill="white"/>
<path d="M347.498 255.267C348.032 255.267 348.566 255.267 349.1 255.267L348.833 257.136C348.299 257.136 348.032 256.869 347.498 256.869C346.43 256.869 345.361 257.403 344.827 258.204C344.026 259.005 343.759 260.073 343.759 261.141V267.817H341.89V255.534H343.492L343.759 257.937C344.293 257.136 344.827 256.602 345.361 256.068C345.896 255.534 346.697 255.267 347.498 255.267Z" fill="white"/>
<path d="M351.236 252.063C351.236 251.796 351.236 251.262 351.503 251.262C351.77 250.995 352.037 250.995 352.304 250.995C352.571 250.995 352.838 250.995 353.105 251.262C353.372 251.529 353.372 251.796 353.372 252.063C353.372 252.33 353.372 252.864 353.105 253.131C352.838 253.398 352.571 253.398 352.304 253.398C352.037 253.398 351.77 253.398 351.503 253.131C351.236 252.864 351.236 252.597 351.236 252.063ZM353.372 267.816H351.503V255.534H353.372V267.816Z" fill="white"/>
<path d="M365.388 264.612C365.388 265.681 364.854 266.749 364.053 267.283C362.984 268.084 361.649 268.351 360.314 268.084C358.979 268.084 357.644 267.817 356.576 267.283V265.414C357.11 265.681 357.911 265.948 358.445 266.215C358.979 266.482 359.78 266.482 360.314 266.482C361.115 266.482 361.916 266.482 362.45 265.948C362.984 265.681 363.251 265.147 363.251 264.612C363.251 264.078 362.984 263.544 362.717 263.277C361.916 262.743 361.115 262.476 360.314 261.942C359.513 261.675 358.712 261.408 357.911 260.874C357.377 260.607 357.11 260.34 356.843 259.806C356.042 258.471 356.576 256.869 357.644 256.068C358.712 255.534 359.78 255 361.115 255.267C362.45 255.267 363.786 255.534 365.121 256.068L364.32 257.67C363.251 257.136 362.183 256.869 360.848 256.869C360.047 256.869 359.513 256.869 358.712 257.403C358.178 257.67 357.911 258.204 357.911 258.471C357.911 258.738 357.911 259.005 358.178 259.272C358.445 259.539 358.712 259.806 358.979 260.073C359.78 260.34 360.314 260.607 361.115 260.874C362.183 261.141 363.251 261.675 364.053 262.476C365.121 263.01 365.388 263.811 365.388 264.612Z" fill="white"/>
<path d="M373.665 268.084C372.063 268.084 370.461 267.55 369.125 266.482C368.057 265.147 367.523 263.545 367.523 261.942C367.523 260.34 368.057 258.471 369.125 257.136C370.193 256.068 371.529 255.267 373.131 255.267C374.466 255.267 375.801 255.801 376.869 256.869C377.67 257.937 378.204 259.539 378.204 260.874V262.209H369.659C369.659 263.277 369.926 264.613 370.728 265.414C371.529 266.215 372.597 266.482 373.665 266.482C375 266.482 376.335 266.215 377.67 265.681V267.283C377.136 267.55 376.335 267.817 375.801 267.817C375 268.084 374.466 268.084 373.665 268.084ZM373.131 256.869C372.33 256.869 371.262 257.136 370.728 257.937C370.193 258.738 369.659 259.539 369.659 260.607H376.335C376.335 259.539 376.068 258.738 375.534 257.937C374.733 257.136 373.932 256.869 373.131 256.869Z" fill="white"/>
<path d="M403.304 267.817V259.806C403.304 259.005 403.037 258.204 402.77 257.67C402.236 257.136 401.435 256.869 400.901 256.869C399.832 256.869 399.031 257.136 398.23 257.937C397.696 258.738 397.429 260.073 397.429 261.141V268.084H395.56V260.073C395.56 259.272 395.293 258.471 395.026 257.937C394.492 257.403 393.691 257.136 393.157 257.136C392.089 257.136 391.021 257.403 390.487 258.204C389.953 259.272 389.686 260.34 389.686 261.675V268.084H387.817V255.534H389.419L389.686 257.136C389.953 256.602 390.487 256.068 391.288 255.801C391.822 255.534 392.623 255.267 393.424 255.267C395.026 255 396.628 255.801 397.162 257.403C397.429 256.869 397.963 256.335 398.764 255.801C399.565 255.534 400.367 255.267 401.168 255.267C402.236 255.267 403.571 255.534 404.372 256.335C405.173 257.403 405.44 258.471 405.44 259.806V267.817H403.304Z" fill="white"/>
<path d="M416.654 267.817L416.387 265.947C415.853 266.481 415.319 267.282 414.518 267.55C413.717 267.817 412.916 268.084 412.115 268.084C411.047 268.084 409.979 267.817 409.178 267.015C408.377 266.214 408.11 265.413 408.11 264.345C408.11 261.942 410.246 260.607 414.251 260.34H416.387V259.539C416.387 258.738 416.12 257.937 415.853 257.403C415.319 256.869 414.518 256.602 413.717 256.602C412.382 256.602 411.314 256.869 410.246 257.403L409.712 256.068C410.246 255.801 411.047 255.534 411.848 255.267C412.649 255 413.45 255 413.984 255C415.052 255 416.387 255.267 417.188 256.068C417.989 256.869 418.256 257.937 418.256 259.272V267.817H416.654ZM412.382 266.748C413.45 266.748 414.251 266.481 415.052 265.68C415.853 264.879 416.12 264.078 416.12 263.01V261.942H414.251C413.183 261.942 412.115 262.209 411.047 262.743C410.513 263.277 409.979 263.811 409.979 264.612C409.979 265.146 410.246 265.68 410.513 266.214C411.047 266.481 411.848 266.748 412.382 266.748Z" fill="white"/>
<path d="M430.272 267.817V259.806C430.272 259.005 430.005 258.204 429.471 257.67C428.937 257.136 428.136 256.869 427.335 256.869C426.267 256.869 425.199 257.136 424.398 257.937C423.597 259.005 423.33 260.073 423.597 261.408V267.817H421.728V255.534H423.33L423.597 257.136C423.864 256.602 424.665 256.068 425.199 255.801C426 255.534 426.801 255.267 427.602 255.267C428.937 255.267 430.005 255.534 431.073 256.335C431.874 257.403 432.408 258.471 432.141 259.806V267.817H430.272Z" fill="white"/>
<path d="M443.89 267.817L443.623 265.947C443.089 266.481 442.555 267.282 441.754 267.55C440.953 267.817 440.152 268.084 439.351 268.084C438.283 268.084 437.215 267.817 436.414 267.015C435.613 266.214 435.346 265.413 435.346 264.345C435.346 261.942 437.482 260.607 441.487 260.34H443.623V259.539C443.623 258.738 443.356 257.937 443.089 257.403C442.555 256.869 441.754 256.602 440.953 256.602C439.618 256.602 438.55 256.869 437.482 257.403L436.948 256.068C437.482 255.801 438.283 255.534 439.084 255.267C439.885 255 440.419 255 441.22 255C442.288 255 443.623 255.267 444.424 256.068C445.225 256.869 445.492 257.937 445.492 259.272V267.817H443.89ZM439.618 266.748C440.686 266.748 441.487 266.481 442.288 265.68C443.089 264.879 443.356 264.078 443.356 263.01V261.942H441.487C440.419 261.942 439.351 262.209 438.283 262.743C437.749 263.277 437.215 263.811 437.215 264.612C437.215 265.146 437.482 265.68 437.749 266.214C438.283 266.481 438.817 266.748 439.618 266.748Z" fill="white"/>
<path d="M459.11 255.534V256.869L456.707 257.136C456.974 257.403 457.241 257.937 457.241 258.204C457.508 258.738 457.508 259.272 457.508 259.539C457.508 260.607 456.974 261.675 456.173 262.476C455.105 263.277 454.037 263.544 452.702 263.544C452.435 263.544 451.901 263.544 451.634 263.544C450.833 263.811 450.566 264.345 450.566 265.146C450.566 265.414 450.833 265.681 451.1 265.948C451.634 266.215 452.168 266.215 452.435 266.215H454.571C455.639 266.215 456.707 266.482 457.775 267.016C458.576 267.55 458.843 268.618 458.843 269.419C458.843 270.754 458.309 271.822 457.241 272.623C455.639 273.424 454.037 273.691 452.435 273.691C451.1 273.691 449.765 273.424 448.696 272.89C447.361 271.822 447.094 269.953 447.895 268.618C447.895 268.618 447.895 268.618 448.162 268.351C448.696 267.817 449.497 267.283 450.299 267.283C450.032 267.016 449.764 267.016 449.497 266.482C449.23 266.215 449.23 265.681 449.23 265.414C449.23 264.879 449.23 264.612 449.497 264.345C449.764 263.811 450.299 263.544 450.566 263.277C450.032 263.01 449.23 262.476 448.963 261.942C448.429 261.408 448.429 260.607 448.429 259.806C448.429 258.738 448.696 257.403 449.765 256.602C450.833 255.801 451.901 255.534 453.236 255.534C453.77 255.534 454.304 255.534 455.105 255.801L459.11 255.534ZM449.23 269.953C449.23 270.487 449.498 271.288 450.032 271.555C450.833 271.822 451.634 272.089 452.435 272.089C453.77 272.089 454.838 271.822 455.906 271.288C456.707 271.021 456.974 270.22 456.974 269.419C456.974 268.885 456.707 268.351 456.44 268.084C455.639 267.817 454.838 267.55 454.037 267.817H451.901C451.1 267.817 450.566 268.084 449.765 268.351C449.497 268.885 449.23 269.419 449.23 269.953ZM450.299 259.272C450.299 260.073 450.566 260.607 451.1 261.141C451.634 261.675 452.435 261.942 453.236 261.942C454.571 262.209 455.639 261.141 455.906 259.806C455.906 259.539 455.906 259.272 455.906 259.272C456.173 257.937 455.105 256.602 453.77 256.602C453.503 256.602 453.503 256.602 453.236 256.602C452.435 256.602 451.634 256.869 451.1 257.403C450.566 257.937 450.299 258.738 450.299 259.272Z" fill="white"/>
<path d="M467.12 268.084C465.518 268.084 463.916 267.55 462.848 266.482C461.78 265.147 461.246 263.545 461.246 261.942C461.246 260.34 461.78 258.471 462.848 257.136C463.916 256.068 465.251 255.267 466.853 255.267C468.188 255.267 469.524 255.801 470.592 256.869C471.66 257.937 471.927 259.539 471.927 260.874V262.209H463.382C463.382 263.545 463.649 264.613 464.45 265.414C465.251 266.215 466.319 266.482 467.387 266.482C468.723 266.482 470.058 266.215 471.393 265.681V267.283C470.859 267.55 470.058 267.817 469.524 267.817C468.455 268.084 467.921 268.084 467.12 268.084ZM466.586 256.869C465.785 256.869 464.717 257.136 464.183 257.937C463.649 258.738 463.115 259.539 463.115 260.607H469.524C469.524 259.539 469.257 258.738 468.723 257.937C468.189 257.136 467.387 256.869 466.586 256.869Z" fill="white"/>
<path d="M490.618 267.817V259.806C490.618 259.005 490.351 258.204 490.084 257.67C489.55 257.136 488.749 256.869 488.214 256.869C487.146 256.869 486.345 257.136 485.544 257.937C485.01 258.738 484.743 260.073 484.743 261.141V268.084H482.874V260.073C482.874 259.272 482.607 258.471 482.34 257.937C481.806 257.403 481.005 257.136 480.471 257.136C479.403 257.136 478.335 257.403 477.801 258.204C477.267 259.272 477 260.34 477 261.675V268.084H475.131V255.534H476.733L477 257.136C477.267 256.602 477.801 256.068 478.602 255.801C479.403 255.534 479.937 255.267 480.738 255.267C482.34 255 483.942 255.801 484.476 257.403C485.01 256.602 485.544 256.068 486.345 255.801C487.146 255.534 487.948 255.267 488.749 255.267C489.817 255.267 491.152 255.534 491.953 256.335C492.754 257.403 493.021 258.471 493.021 259.806V267.817H490.618Z" fill="white"/>
<path d="M501.565 268.084C499.963 268.084 498.361 267.55 497.293 266.482C496.225 265.147 495.691 263.545 495.691 261.942C495.691 260.34 496.225 258.471 497.293 257.136C498.361 256.068 499.696 255.267 501.298 255.267C502.633 255.267 503.968 255.801 505.036 256.869C506.104 257.937 506.371 259.539 506.371 260.874V262.209H497.827C497.827 263.545 498.094 264.613 498.895 265.414C499.696 266.215 500.764 266.482 501.832 266.482C503.167 266.482 504.502 266.215 505.837 265.681V267.283C505.303 267.55 504.502 267.817 503.968 267.817C503.167 268.084 502.366 268.084 501.565 268.084ZM501.031 256.869C500.23 256.869 499.162 257.136 498.628 257.937C498.094 258.738 497.56 259.539 497.56 260.607H503.968C503.968 259.539 503.701 258.738 503.167 257.937C502.9 257.136 502.099 256.869 501.031 256.869Z" fill="white"/>
<path d="M517.853 267.817V259.806C517.853 259.005 517.586 258.204 517.052 257.67C516.518 257.136 515.717 256.869 514.916 256.869C513.848 256.869 512.78 257.136 511.979 257.937C511.178 259.005 510.911 260.073 511.178 261.408V267.817H509.309V255.534H510.911L511.178 257.136C511.445 256.602 512.246 256.068 512.78 255.801C513.581 255.534 514.382 255.267 515.183 255.267C516.518 255.267 517.586 255.534 518.654 256.335C519.455 257.403 519.989 258.471 519.722 259.806V267.817H517.853Z" fill="white"/>
<path d="M527.733 266.749H528.801L529.602 266.482V267.817C529.335 267.817 529.068 268.084 528.801 268.084C528.534 268.084 528 268.084 527.733 268.084C525.33 268.084 523.995 266.749 523.995 264.346V256.869H522.126V256.068L523.995 255.267L524.796 252.597H525.864V255.534H529.602V256.869H525.864V264.079C525.864 264.613 526.131 265.414 526.398 265.681C526.665 266.482 527.199 266.749 527.733 266.749Z" fill="white"/>
</svg>
